<?xml version="1.0" encoding="UTF-8"?>
<svg id="Layer_2" data-name="Layer 2" xmlns="http://www.w3.org/2000/svg" xmlns:xlink="http://www.w3.org/1999/xlink" viewBox="0 0 328.37 374.33">
  <defs>
    <style>
      .cls-1, .cls-2 {
        fill: none;
      }

      .cls-1, .cls-3 {
        stroke: #231f20;
        stroke-miterlimit: 10;
      }

      .cls-4 {
        fill: #eecde2;
      }

      .cls-5 {
        clip-path: url(#clippath-1);
      }

      .cls-6 {
        clip-path: url(#clippath);
      }

      .cls-3 {
        fill: #fbf49c;
        stroke-width: 1px;
      }
    </style>
    <clipPath id="clippath">
      <rect class="cls-2" y="45.95" width="328.37" height="328.37"/>
    </clipPath>
    <clipPath id="clippath-1">
      <rect class="cls-2" y="45.95" width="328.37" height="328.37"/>
    </clipPath>
  </defs>
  <g id="Layer_1-2" data-name="Layer 1">
    <g>
      <circle class="cls-3" cx="164.19" cy="101.15" r="100.65"/>
      <g id="Artwork_1" data-name="Artwork 1">
        <g class="cls-6">
          <g class="cls-5">
            <path class="cls-4" d="M73.87,223.61c31.63,10.01,64.5,3.93,89.79-13.63-10.6-28.91-33.99-52.78-65.62-62.79-31.63-10.01-64.5-3.93-89.79,13.63,10.6,28.91,33.99,52.78,65.62,62.79"/>
            <path class="cls-1" d="M73.87,223.61c31.63,10.01,64.5,3.93,89.79-13.63-10.6-28.91-33.99-52.78-65.62-62.79-31.63-10.01-64.5-3.93-89.79,13.63,10.6,28.91,33.99,52.78,65.62,62.79Z"/>
            <path class="cls-4" d="M76.2,185.7c24.83,22.01,57.32,29.83,87.58,24.07,2.08-30.72-9.59-62.04-34.41-84.05-24.83-22.01-57.32-29.83-87.58-24.07-2.08,30.73,9.58,62.05,34.41,84.05"/>
            <path class="cls-1" d="M76.2,185.7c24.83,22.01,57.32,29.83,87.58,24.07,2.08-30.72-9.59-62.04-34.41-84.05-24.83-22.01-57.32-29.83-87.58-24.07-2.08,30.73,9.58,62.05,34.41,84.05Z"/>
            <path class="cls-4" d="M93.74,152.03c13.73,30.2,40.24,50.56,70.21,57.61,14.4-27.22,16.48-60.58,2.75-90.78-13.73-30.2-40.24-50.56-70.21-57.61-14.4,27.22-16.48,60.58-2.75,90.78"/>
            <path class="cls-1" d="M93.74,152.03c13.73,30.2,40.24,50.56,70.21,57.61,14.4-27.22,16.48-60.58,2.75-90.78-13.73-30.2-40.24-50.56-70.21-57.61-14.4,27.22-16.48,60.58-2.75,90.78Z"/>
            <path class="cls-4" d="M123.47,128.4c.26,33.18,16.19,62.56,40.71,81.19,24.23-19.01,39.7-48.64,39.44-81.82-.26-33.18-16.19-62.56-40.71-81.19-24.23,19.01-39.7,48.64-39.44,81.81"/>
            <path class="cls-1" d="M123.47,128.4c.26,33.18,16.19,62.56,40.71,81.19,24.23-19.01,39.7-48.64,39.44-81.82-.26-33.18-16.19-62.56-40.71-81.19-24.23,19.01-39.7,48.64-39.44,81.81Z"/>
            <path class="cls-4" d="M160.24,118.91c-13.26,30.41-10.65,63.74,4.17,90.73,29.86-7.51,56.05-28.29,69.3-58.7,13.26-30.41,10.65-63.73-4.17-90.73-29.86,7.52-56.05,28.29-69.3,58.7"/>
            <path class="cls-1" d="M160.24,118.91c-13.26,30.41-10.65,63.74,4.17,90.73,29.86-7.51,56.05-28.29,69.3-58.7,13.26-30.41,10.65-63.73-4.17-90.73-29.86,7.52-56.05,28.29-69.3,58.7Z"/>
            <path class="cls-4" d="M197.69,125.19c-24.48,22.39-35.65,53.89-33.09,84.58,30.34,5.28,62.71-3.05,87.19-25.44,24.48-22.39,35.65-53.89,33.09-84.58-30.34-5.28-62.71,3.05-87.19,25.44"/>
            <path class="cls-1" d="M197.69,125.19c-24.48,22.39-35.65,53.89-33.09,84.58,30.34,5.28,62.71-3.05,87.19-25.44,24.48-22.39,35.65-53.89,33.09-84.58-30.34-5.28-62.71,3.05-87.19,25.44Z"/>
            <path class="cls-4" d="M229.34,146.16c-31.47,10.5-54.49,34.73-64.63,63.81,25.57,17.16,58.53,22.72,90,12.22,31.47-10.5,54.49-34.73,64.63-63.81-25.57-17.17-58.52-22.72-90-12.22"/>
            <path class="cls-1" d="M229.34,146.16c-31.47,10.5-54.49,34.73-64.63,63.81,25.57,17.16,58.53,22.72,90,12.22,31.47-10.5,54.49-34.73,64.63-63.81-25.57-17.17-58.52-22.72-90-12.22Z"/>
          </g>
        </g>
      </g>
    </g>
  </g>
</svg>