<?xml version="1.0" encoding="UTF-8"?>
<svg id="Layer_2" data-name="Layer 2" xmlns="http://www.w3.org/2000/svg" viewBox="0 0 328.37 328.37">
  <defs>
    <style>
      .cls-1 {
        fill: #eecde2;
        stroke: #231f20;
        stroke-miterlimit: 10;
        stroke-width: 1px;
      }
    </style>
  </defs>
  <g id="Layer_1-2" data-name="Layer 1">
    <g>
      <g id="_Radial_Repeat_" data-name="&amp;lt;Radial Repeat&amp;gt;">
        <path class="cls-1" d="M73.87,177.65c31.63,10,64.5,3.93,89.79-13.63-10.6-28.91-33.99-52.78-65.62-62.79-31.63-10-64.5-3.93-89.79,13.63,10.6,28.91,33.99,52.78,65.62,62.79Z"/>
      </g>
      <g id="_Radial_Repeat_-2" data-name="&amp;lt;Radial Repeat&amp;gt;">
        <path class="cls-1" d="M76.2,139.75c24.83,22.01,57.32,29.83,87.58,24.07,2.08-30.72-9.58-62.05-34.41-84.05s-57.32-29.83-87.58-24.07c-2.08,30.72,9.58,62.05,34.41,84.05Z"/>
      </g>
      <g id="_Radial_Repeat_-3" data-name="&amp;lt;Radial Repeat&amp;gt;">
        <path class="cls-1" d="M93.74,106.07c13.73,30.2,40.24,50.56,70.21,57.61,14.4-27.22,16.48-60.58,2.75-90.78-13.73-30.2-40.24-50.56-70.21-57.61-14.4,27.22-16.48,60.58-2.75,90.78Z"/>
      </g>
      <g id="_Radial_Repeat_-4" data-name="&amp;lt;Radial Repeat&amp;gt;">
        <path class="cls-1" d="M123.47,82.45c.26,33.18,16.19,62.56,40.71,81.19,24.23-19.01,39.7-48.64,39.44-81.82S187.43,19.26,162.91,.63c-24.23,19.01-39.7,48.64-39.44,81.82Z"/>
      </g>
      <g id="_Radial_Repeat_-5" data-name="&amp;lt;Radial Repeat&amp;gt;">
        <path class="cls-1" d="M160.24,72.95c-13.26,30.41-10.65,63.73,4.17,90.73,29.86-7.51,56.05-28.29,69.3-58.7,13.26-30.41,10.65-63.73-4.17-90.73-29.86,7.51-56.05,28.29-69.3,58.7Z"/>
      </g>
      <g id="_Radial_Repeat_-6" data-name="&amp;lt;Radial Repeat&amp;gt;">
        <path class="cls-1" d="M197.69,79.23c-24.48,22.39-35.65,53.89-33.09,84.58,30.34,5.28,62.71-3.05,87.19-25.44s35.65-53.89,33.09-84.58c-30.34-5.28-62.71,3.05-87.19,25.44Z"/>
      </g>
      <g id="_Radial_Repeat_-7" data-name="&amp;lt;Radial Repeat&amp;gt;">
        <path class="cls-1" d="M229.34,100.2c-31.47,10.5-54.49,34.73-64.63,63.81,25.57,17.16,58.53,22.72,90,12.22,31.47-10.5,54.49-34.73,64.63-63.81-25.57-17.16-58.53-22.72-90-12.22Z"/>
      </g>
    </g>
  </g>
</svg>